<?xml version="1.0" encoding="UTF-8" standalone="no"?>
<!DOCTYPE svg PUBLIC "-//W3C//DTD SVG 1.1//EN" "http://www.w3.org/Graphics/SVG/1.1/DTD/svg11.dtd">
<!-- Created with Vectornator (http://vectornator.io/) -->
<svg stroke-miterlimit="10" style="fill-rule:nonzero;clip-rule:evenodd;stroke-linecap:round;stroke-linejoin:round;" version="1.1" viewBox="0 0 358 147" xml:space="preserve" xmlns="http://www.w3.org/2000/svg" xmlns:xlink="http://www.w3.org/1999/xlink">
<defs/>
<clipPath id="ArtboardFrame">
<rect height="147" width="358" x="0" y="0"/>
</clipPath>
<g clip-path="url(#ArtboardFrame)" id="Layer-1">
<g opacity="1">
<path d="M154.982 90.816L154.982 113.06C154.982 114.609 155.355 115.73 156.102 116.421C156.85 117.113 158.108 117.459 159.879 117.459L165.274 117.459L165.274 127.253L157.97 127.253C148.176 127.253 143.279 122.494 143.279 112.977L143.279 90.816L137.801 90.816L137.801 81.271L143.279 81.271L143.279 69.9L154.982 69.9L154.982 81.271L165.274 81.271L165.274 90.816L154.982 90.816Z" fill="#000000" fill-rule="nonzero" opacity="1" stroke="none"/>
<path d="M194.075 128C189.648 128 185.664 127.018 182.123 125.053C178.582 123.089 175.801 120.309 173.781 116.712C171.762 113.115 170.752 108.965 170.752 104.262C170.752 99.5587 171.789 95.4087 173.864 91.812C175.94 88.2153 178.775 85.4348 182.372 83.4705C185.969 81.5062 189.98 80.524 194.407 80.524C198.834 80.524 202.845 81.5062 206.442 83.4705C210.039 85.4348 212.874 88.2153 214.95 91.812C217.025 95.4087 218.062 99.5587 218.062 104.262C218.062 108.965 216.997 113.115 214.867 116.712C212.736 120.309 209.859 123.089 206.234 125.053C202.61 127.018 198.557 128 194.075 128ZM194.075 117.874C196.178 117.874 198.156 117.362 200.01 116.338C201.863 115.315 203.343 113.779 204.45 111.732C205.557 109.685 206.11 107.195 206.11 104.262C206.11 99.8907 204.962 96.5292 202.666 94.1775C200.369 91.8258 197.561 90.65 194.241 90.65C190.921 90.65 188.141 91.8258 185.899 94.1775C183.658 96.5292 182.538 99.8907 182.538 104.262C182.538 108.633 183.631 111.995 185.817 114.346C188.002 116.698 190.755 117.874 194.075 117.874Z" fill="#000000" fill-rule="nonzero" opacity="1" stroke="none"/>
<path d="M283.715 80.607C289.359 80.607 293.91 82.3362 297.368 85.7945C300.827 89.2528 302.556 94.0807 302.556 100.278L302.556 127.253L290.936 127.253L290.936 101.855C290.936 98.2583 290.023 95.5055 288.197 93.5965C286.371 91.6875 283.881 90.733 280.727 90.733C277.573 90.733 275.069 91.6875 273.216 93.5965C271.362 95.5055 270.435 98.2583 270.435 101.855L270.435 127.253L258.815 127.253L258.815 101.855C258.815 98.2583 257.902 95.5055 256.076 93.5965C254.25 91.6875 251.76 90.733 248.606 90.733C245.397 90.733 242.865 91.6875 241.012 93.5965C239.158 95.5055 238.231 98.2583 238.231 101.855L238.231 127.253L226.611 127.253L226.611 81.271L238.231 81.271L238.231 86.832C239.725 84.8953 241.648 83.3737 244 82.267C246.351 81.1603 248.938 80.607 251.76 80.607C255.357 80.607 258.566 81.3678 261.388 82.8895C264.21 84.4112 266.396 86.583 267.945 89.405C269.439 86.749 271.611 84.6187 274.461 83.014C277.31 81.4093 280.395 80.607 283.715 80.607Z" fill="#000000" fill-rule="nonzero" opacity="1" stroke="none"/>
<path d="M334.013 128C329.586 128 325.602 127.018 322.061 125.053C318.52 123.089 315.739 120.309 313.719 116.712C311.7 113.115 310.69 108.965 310.69 104.262C310.69 99.5587 311.727 95.4087 313.803 91.812C315.878 88.2153 318.713 85.4348 322.31 83.4705C325.907 81.5062 329.918 80.524 334.345 80.524C338.772 80.524 342.783 81.5062 346.38 83.4705C349.977 85.4348 352.812 88.2153 354.887 91.812C356.963 95.4087 358 99.5587 358 104.262C358 108.965 356.935 113.115 354.804 116.712C352.674 120.309 349.797 123.089 346.173 125.053C342.548 127.018 338.495 128 334.013 128ZM334.013 117.874C336.116 117.874 338.094 117.362 339.947 116.338C341.801 115.315 343.281 113.779 344.388 111.732C345.495 109.685 346.048 107.195 346.048 104.262C346.048 99.8907 344.9 96.5292 342.603 94.1775C340.307 91.8258 337.499 90.65 334.179 90.65C330.859 90.65 328.079 91.8258 325.837 94.1775C323.596 96.5292 322.476 99.8907 322.476 104.262C322.476 108.633 323.569 111.995 325.755 114.346C327.94 116.698 330.693 117.874 334.013 117.874Z" fill="#000000" fill-rule="nonzero" opacity="1" stroke="none"/>
<path d="M52 56L-7.10543e-15 128L104 128L52 56ZM52 83.3281L72.707 112L31.293 112C40.7285 98.9355 44.2509 94.0577 52 83.3281Z" fill="#000000" fill-rule="nonzero" opacity="1" stroke="none"/>
<path d="M76 56L68 67.0781L112 128L128 128L76 56Z" fill="#000000" fill-rule="nonzero" opacity="1" stroke="none"/>
<path d="M64-7.10543e-15C50.7716-7.10543e-15 38.4837 4.01505 28.2812 10.8906C11.2228 22.3865-7.10543e-15 41.8822-7.10543e-15 64C-7.10543e-15 77.5198 4.20403 90.0502 11.3594 100.383L52.3633 44L64 60L75.6367 44L116.641 100.383C123.796 90.0502 128 77.5199 128 64C128 41.8822 116.777 22.3865 99.7188 10.8906C89.5163 4.01505 77.2285-7.10543e-15 64-7.10543e-15Z" fill="#ff3000" fill-rule="nonzero" opacity="1" stroke="none"/>
<path d="M6.39552 142.3C6.31687 142.173 6.20495 142.074 6.05975 142.005C5.91455 141.935 5.73911 141.9 5.53341 141.9C5.14622 141.9 4.84675 142.026 4.63501 142.277C4.42327 142.528 4.31739 142.871 4.31739 143.307C4.31739 143.809 4.43537 144.184 4.67131 144.432C4.90725 144.68 5.27024 144.804 5.76028 144.804C6.22612 144.804 6.60121 144.617 6.88555 144.242L5.27932 144.242L5.27932 142.817L8.55531 142.817L8.55531 144.832C8.27702 145.309 7.89285 145.719 7.40282 146.061C6.91278 146.403 6.29267 146.574 5.54249 146.574C4.877 146.574 4.29773 146.436 3.80467 146.161C3.31161 145.886 2.93349 145.5 2.67032 145.004C2.40715 144.508 2.27557 143.942 2.27557 143.307C2.27557 142.672 2.40715 142.106 2.67032 141.61C2.93349 141.114 3.31009 140.728 3.80013 140.453C4.29017 140.178 4.8649 140.04 5.52434 140.04C6.36527 140.04 7.05041 140.243 7.57977 140.648C8.10914 141.053 8.42221 141.604 8.51901 142.3L6.39552 142.3Z" fill="#000000" fill-rule="nonzero" opacity="1" stroke="none"/>
<path d="M18.3113 146.529L17.1044 144.224L17.0953 144.224L17.0953 146.529L15.0807 146.529L15.0807 140.104L18.0754 140.104C18.5957 140.104 19.0403 140.196 19.4094 140.38C19.7784 140.565 20.0552 140.816 20.2397 141.134C20.4242 141.451 20.5165 141.81 20.5165 142.209C20.5165 142.638 20.397 143.02 20.158 143.352C19.9191 143.685 19.5757 143.924 19.1281 144.069L20.5256 146.529L18.3113 146.529ZM17.0953 142.88L17.8939 142.88C18.0875 142.88 18.2327 142.837 18.3295 142.749C18.4263 142.661 18.4747 142.524 18.4747 142.336C18.4747 142.167 18.4248 142.033 18.3249 141.937C18.2251 141.84 18.0814 141.791 17.8939 141.791L17.0953 141.791L17.0953 142.88Z" fill="#000000" fill-rule="nonzero" opacity="1" stroke="none"/>
<path d="M31.0802 145.558L28.9385 145.558L28.6209 146.529L26.5065 146.529L28.8569 140.104L31.18 140.104L33.5213 146.529L31.3978 146.529L31.0802 145.558ZM30.5901 144.042L30.0094 142.254L29.4286 144.042L30.5901 144.042Z" fill="#000000" fill-rule="nonzero" opacity="1" stroke="none"/>
<path d="M45.0287 142.309C45.0287 142.714 44.935 143.082 44.7474 143.411C44.5599 143.741 44.2831 144.003 43.9171 144.196C43.5511 144.39 43.1079 144.487 42.5876 144.487L41.789 144.487L41.789 146.529L39.7744 146.529L39.7744 140.104L42.5876 140.104C43.3741 140.104 43.9776 140.303 44.398 140.703C44.8185 141.102 45.0287 141.637 45.0287 142.309ZM42.3608 142.899C42.7782 142.899 42.9869 142.702 42.9869 142.309C42.9869 141.916 42.7782 141.719 42.3608 141.719L41.789 141.719L41.789 142.899L42.3608 142.899Z" fill="#000000" fill-rule="nonzero" opacity="1" stroke="none"/>
<path d="M57.4074 140.104L57.4074 146.529L55.3928 146.529L55.3928 144.024L53.478 144.024L53.478 146.529L51.4634 146.529L51.4634 140.104L53.478 140.104L53.478 142.418L55.3928 142.418L55.3928 140.104L57.4074 140.104Z" fill="#000000" fill-rule="nonzero" opacity="1" stroke="none"/>
<path d="M66.1289 140.104L66.1289 146.529L64.1143 146.529L64.1143 140.104L66.1289 140.104Z" fill="#000000" fill-rule="nonzero" opacity="1" stroke="none"/>
<path d="M72.6543 143.307C72.6543 142.672 72.7828 142.106 73.0399 141.61C73.2971 141.114 73.6646 140.728 74.1425 140.453C74.6205 140.178 75.1831 140.04 75.8304 140.04C76.387 140.04 76.8846 140.144 77.3232 140.353C77.7618 140.562 78.1188 140.857 78.3941 141.238C78.6693 141.619 78.8523 142.064 78.9431 142.572L76.8196 142.572C76.7228 142.36 76.5851 142.195 76.4067 142.077C76.2282 141.959 76.024 141.9 75.7941 141.9C75.4553 141.9 75.1876 142.027 74.991 142.282C74.7944 142.536 74.6961 142.877 74.6961 143.307C74.6961 143.737 74.7944 144.078 74.991 144.332C75.1876 144.587 75.4553 144.714 75.7941 144.714C76.024 144.714 76.2282 144.655 76.4067 144.537C76.5851 144.419 76.7228 144.254 76.8196 144.042L78.9431 144.042C78.8523 144.55 78.6693 144.995 78.3941 145.376C78.1188 145.757 77.7618 146.052 77.3232 146.261C76.8846 146.47 76.387 146.574 75.8304 146.574C75.1831 146.574 74.6205 146.436 74.1425 146.161C73.6646 145.886 73.2971 145.5 73.0399 145.004C72.7828 144.508 72.6543 143.942 72.6543 143.307Z" fill="#000000" fill-rule="nonzero" opacity="1" stroke="none"/>
<path d="M89.5884 145.558L87.4468 145.558L87.1292 146.529L85.0147 146.529L87.3651 140.104L89.6882 140.104L92.0295 146.529L89.906 146.529L89.5884 145.558ZM89.0984 144.042L88.5176 142.254L87.9368 144.042L89.0984 144.042Z" fill="#000000" fill-rule="nonzero" opacity="1" stroke="none"/>
<path d="M100.297 145.004L102.239 145.004L102.239 146.529L98.2827 146.529L98.2827 140.104L100.297 140.104L100.297 145.004Z" fill="#000000" fill-rule="nonzero" opacity="1" stroke="none"/>
<path d="M117.985 140.104L117.985 143.724C117.985 144.021 118.05 144.255 118.18 144.428C118.31 144.6 118.521 144.686 118.811 144.686C119.101 144.686 119.316 144.6 119.455 144.428C119.595 144.255 119.664 144.021 119.664 143.724L119.664 140.104L121.67 140.104L121.67 143.724C121.67 144.335 121.543 144.857 121.289 145.29C121.034 145.722 120.687 146.048 120.245 146.265C119.803 146.483 119.31 146.592 118.766 146.592C118.221 146.592 117.739 146.483 117.318 146.265C116.898 146.048 116.57 145.724 116.334 145.294C116.098 144.865 115.98 144.341 115.98 143.724L115.98 140.104L117.985 140.104Z" fill="#000000" fill-rule="nonzero" opacity="1" stroke="none"/>
<path d="M130.854 146.592C130.086 146.592 129.452 146.412 128.953 146.052C128.454 145.692 128.183 145.164 128.141 144.469L130.282 144.469C130.313 144.838 130.476 145.022 130.772 145.022C130.881 145.022 130.973 144.996 131.049 144.945C131.125 144.894 131.163 144.813 131.163 144.704C131.163 144.553 131.081 144.431 130.917 144.337C130.754 144.243 130.5 144.136 130.155 144.015C129.744 143.87 129.404 143.727 129.134 143.588C128.865 143.449 128.634 143.246 128.44 142.98C128.246 142.714 128.153 142.372 128.159 141.955C128.159 141.537 128.266 141.182 128.481 140.889C128.696 140.595 128.989 140.373 129.361 140.222C129.733 140.07 130.152 139.995 130.618 139.995C131.405 139.995 132.029 140.176 132.492 140.539C132.955 140.902 133.198 141.413 133.222 142.073L131.054 142.073C131.048 141.891 131.002 141.761 130.917 141.683C130.833 141.604 130.73 141.565 130.609 141.565C130.524 141.565 130.455 141.593 130.4 141.651C130.346 141.708 130.319 141.788 130.319 141.891C130.319 142.036 130.399 142.156 130.559 142.25C130.719 142.344 130.975 142.457 131.326 142.59C131.731 142.741 132.065 142.887 132.329 143.026C132.592 143.165 132.82 143.358 133.014 143.606C133.207 143.854 133.304 144.166 133.304 144.541C133.304 144.934 133.207 145.287 133.014 145.598C132.82 145.91 132.539 146.153 132.17 146.329C131.801 146.504 131.362 146.592 130.854 146.592Z" fill="#000000" fill-rule="nonzero" opacity="1" stroke="none"/>
<path d="M141.826 141.71L141.826 142.499L143.822 142.499L143.822 144.015L141.826 144.015L141.826 144.922L144.095 144.922L144.095 146.529L139.811 146.529L139.811 140.104L144.095 140.104L144.095 141.71L141.826 141.71Z" fill="#000000" fill-rule="nonzero" opacity="1" stroke="none"/>
<path d="M153.887 146.529L152.68 144.224L152.671 144.224L152.671 146.529L150.656 146.529L150.656 140.104L153.651 140.104C154.171 140.104 154.616 140.196 154.985 140.38C155.354 140.565 155.631 140.816 155.815 141.134C156 141.451 156.092 141.81 156.092 142.209C156.092 142.638 155.973 143.02 155.734 143.352C155.495 143.685 155.151 143.924 154.704 144.069L156.101 146.529L153.887 146.529ZM152.671 142.88L153.47 142.88C153.663 142.88 153.808 142.837 153.905 142.749C154.002 142.661 154.05 142.524 154.05 142.336C154.05 142.167 154 142.033 153.901 141.937C153.801 141.84 153.657 141.791 153.47 141.791L152.671 141.791L152.671 142.88Z" fill="#000000" fill-rule="nonzero" opacity="1" stroke="none"/>
<path d="M171.893 140.104L171.893 146.529L169.878 146.529L169.878 140.104L171.893 140.104Z" fill="#000000" fill-rule="nonzero" opacity="1" stroke="none"/>
<path d="M184.761 146.529L182.747 146.529L180.614 143.298L180.614 146.529L178.6 146.529L178.6 140.104L180.614 140.104L182.747 143.389L182.747 140.104L184.761 140.104L184.761 146.529Z" fill="#000000" fill-rule="nonzero" opacity="1" stroke="none"/>
<path d="M196.514 140.104L196.514 141.701L194.808 141.701L194.808 146.529L192.793 146.529L192.793 141.701L191.105 141.701L191.105 140.104L196.514 140.104Z" fill="#000000" fill-rule="nonzero" opacity="1" stroke="none"/>
<path d="M204.872 141.71L204.872 142.499L206.869 142.499L206.869 144.015L204.872 144.015L204.872 144.922L207.141 144.922L207.141 146.529L202.858 146.529L202.858 140.104L207.141 140.104L207.141 141.71L204.872 141.71Z" fill="#000000" fill-rule="nonzero" opacity="1" stroke="none"/>
<path d="M216.933 146.529L215.726 144.224L215.717 144.224L215.717 146.529L213.703 146.529L213.703 140.104L216.697 140.104C217.218 140.104 217.662 140.196 218.031 140.38C218.4 140.565 218.677 140.816 218.862 141.134C219.046 141.451 219.138 141.81 219.138 142.209C219.138 142.638 219.019 143.02 218.78 143.352C218.541 143.685 218.198 143.924 217.75 144.069L219.148 146.529L216.933 146.529ZM215.717 142.88L216.516 142.88C216.709 142.88 216.855 142.837 216.951 142.749C217.048 142.661 217.097 142.524 217.097 142.336C217.097 142.167 217.047 142.033 216.947 141.937C216.847 141.84 216.703 141.791 216.516 141.791L215.717 141.791L215.717 142.88Z" fill="#000000" fill-rule="nonzero" opacity="1" stroke="none"/>
<path d="M230.12 140.104L230.12 141.701L227.597 141.701L227.597 142.59L229.412 142.59L229.412 144.106L227.597 144.106L227.597 146.529L225.582 146.529L225.582 140.104L230.12 140.104Z" fill="#000000" fill-rule="nonzero" opacity="1" stroke="none"/>
<path d="M240.72 145.558L238.578 145.558L238.26 146.529L236.146 146.529L238.496 140.104L240.819 140.104L243.161 146.529L241.037 146.529L240.72 145.558ZM240.23 144.042L239.649 142.254L239.068 144.042L240.23 144.042Z" fill="#000000" fill-rule="nonzero" opacity="1" stroke="none"/>
<path d="M249.232 143.307C249.232 142.672 249.361 142.106 249.618 141.61C249.875 141.114 250.243 140.728 250.721 140.453C251.199 140.178 251.761 140.04 252.408 140.04C252.965 140.04 253.463 140.144 253.901 140.353C254.34 140.562 254.697 140.857 254.972 141.238C255.247 141.619 255.43 142.064 255.521 142.572L253.398 142.572C253.301 142.36 253.163 142.195 252.985 142.077C252.806 141.959 252.602 141.9 252.372 141.9C252.033 141.9 251.766 142.027 251.569 142.282C251.372 142.536 251.274 142.877 251.274 143.307C251.274 143.737 251.372 144.078 251.569 144.332C251.766 144.587 252.033 144.714 252.372 144.714C252.602 144.714 252.806 144.655 252.985 144.537C253.163 144.419 253.301 144.254 253.398 144.042L255.521 144.042C255.43 144.55 255.247 144.995 254.972 145.376C254.697 145.757 254.34 146.052 253.901 146.261C253.463 146.47 252.965 146.574 252.408 146.574C251.761 146.574 251.199 146.436 250.721 146.161C250.243 145.886 249.875 145.5 249.618 145.004C249.361 144.508 249.232 143.942 249.232 143.307Z" fill="#000000" fill-rule="nonzero" opacity="1" stroke="none"/>
<path d="M264.061 141.71L264.061 142.499L266.058 142.499L266.058 144.015L264.061 144.015L264.061 144.922L266.33 144.922L266.33 146.529L262.047 146.529L262.047 140.104L266.33 140.104L266.33 141.71L264.061 141.71Z" fill="#000000" fill-rule="nonzero" opacity="1" stroke="none"/>
<path d="M285.279 140.104L285.279 141.701L283.573 141.701L283.573 146.529L281.559 146.529L281.559 141.701L279.871 141.701L279.871 140.104L285.279 140.104Z" fill="#000000" fill-rule="nonzero" opacity="1" stroke="none"/>
<path d="M294.754 146.592C294.149 146.592 293.594 146.45 293.089 146.166C292.584 145.881 292.183 145.488 291.886 144.986C291.59 144.484 291.442 143.918 291.442 143.289C291.442 142.66 291.59 142.094 291.886 141.592C292.183 141.09 292.584 140.698 293.089 140.417C293.594 140.135 294.149 139.995 294.754 139.995C295.359 139.995 295.912 140.135 296.415 140.417C296.917 140.698 297.315 141.09 297.608 141.592C297.901 142.094 298.048 142.66 298.048 143.289C298.048 143.918 297.901 144.484 297.608 144.986C297.315 145.488 296.915 145.881 296.41 146.166C295.905 146.45 295.353 146.592 294.754 146.592ZM294.754 144.714C295.153 144.714 295.462 144.585 295.68 144.328C295.897 144.071 296.006 143.724 296.006 143.289C296.006 142.847 295.897 142.498 295.68 142.241C295.462 141.984 295.153 141.855 294.754 141.855C294.349 141.855 294.037 141.984 293.819 142.241C293.601 142.498 293.493 142.847 293.493 143.289C293.493 143.724 293.601 144.071 293.819 144.328C294.037 144.585 294.349 144.714 294.754 144.714Z" fill="#000000" fill-rule="nonzero" opacity="1" stroke="none"/>
<path d="M307.704 146.592C307.099 146.592 306.544 146.45 306.039 146.166C305.534 145.881 305.133 145.488 304.837 144.986C304.54 144.484 304.392 143.918 304.392 143.289C304.392 142.66 304.54 142.094 304.837 141.592C305.133 141.09 305.534 140.698 306.039 140.417C306.544 140.135 307.099 139.995 307.704 139.995C308.309 139.995 308.863 140.135 309.365 140.417C309.867 140.698 310.265 141.09 310.558 141.592C310.852 142.094 310.998 142.66 310.998 143.289C310.998 143.918 310.852 144.484 310.558 144.986C310.265 145.488 309.866 145.881 309.36 146.166C308.855 146.45 308.303 146.592 307.704 146.592ZM307.704 144.714C308.104 144.714 308.412 144.585 308.63 144.328C308.848 144.071 308.957 143.724 308.957 143.289C308.957 142.847 308.848 142.498 308.63 142.241C308.412 141.984 308.104 141.855 307.704 141.855C307.299 141.855 306.987 141.984 306.77 142.241C306.552 142.498 306.443 142.847 306.443 143.289C306.443 143.724 306.552 144.071 306.77 144.328C306.987 144.585 307.299 144.714 307.704 144.714Z" fill="#000000" fill-rule="nonzero" opacity="1" stroke="none"/>
<path d="M319.538 145.004L321.48 145.004L321.48 146.529L317.524 146.529L317.524 140.104L319.538 140.104L319.538 145.004Z" fill="#000000" fill-rule="nonzero" opacity="1" stroke="none"/>
<path d="M331.799 146.529L329.93 143.743L329.93 146.529L327.915 146.529L327.915 140.104L329.93 140.104L329.93 142.808L331.772 140.104L334.05 140.104L331.835 143.18L334.195 146.529L331.799 146.529Z" fill="#000000" fill-rule="nonzero" opacity="1" stroke="none"/>
<path d="M342.581 140.104L342.581 146.529L340.566 146.529L340.566 140.104L342.581 140.104Z" fill="#000000" fill-rule="nonzero" opacity="1" stroke="none"/>
<path d="M354.333 140.104L354.333 141.701L352.627 141.701L352.627 146.529L350.612 146.529L350.612 141.701L348.924 141.701L348.924 140.104L354.333 140.104Z" fill="#000000" fill-rule="nonzero" opacity="1" stroke="none"/>
</g>
</g>
</svg>
